<svg width="325" height="34" viewBox="0 0 325 34" fill="none" xmlns="http://www.w3.org/2000/svg">
<path d="M0.627991 27V1.87201H19.24V6.73201H6.56799V11.592H14.74V16.452H6.56799V22.14H19.384V27H0.627991Z" fill="white"/>
<path d="M37.3981 16.992V14.292C37.3981 13.38 37.1581 12.648 36.6781 12.096C36.1981 11.52 35.4781 11.232 34.5181 11.232C33.4381 11.232 32.4181 11.592 31.4581 12.312C30.4981 13.032 29.5861 14.28 28.7221 16.056L28.1461 11.34C28.7701 10.284 29.4541 9.40801 30.1981 8.71201C30.9421 7.99201 31.758 7.45201 32.646 7.09201C33.558 6.73201 34.5541 6.55201 35.6341 6.55201C37.7701 6.55201 39.5341 7.21201 40.9261 8.53201C42.3181 9.82801 43.0141 11.748 43.0141 14.292V16.992H37.3981ZM24.0421 27V6.98401H29.4421L29.6581 10.584V27H24.0421Z" fill="white"/>
<path d="M56.7081 27.432C54.5481 27.432 52.6881 27.012 51.1281 26.172C49.5921 25.332 48.4041 24.132 47.5641 22.572C46.7241 21.012 46.3041 19.152 46.3041 16.992C46.3041 14.808 46.7241 12.936 47.5641 11.376C48.4041 9.81601 49.6161 8.62801 51.2001 7.81201C52.8081 6.97201 54.7401 6.55201 56.9961 6.55201C60.5241 6.55201 63.0801 7.56001 64.6641 9.57601C66.2721 11.568 66.9441 14.316 66.6801 17.82H50.7681L50.8041 13.968H60.9561C60.8841 13.056 60.4761 12.324 59.7321 11.772C58.9881 11.196 58.0641 10.908 56.9601 10.908C55.2321 10.908 53.9601 11.448 53.1441 12.528C52.3281 13.608 51.9201 15.18 51.9201 17.244C51.9201 18.276 52.1001 19.224 52.4601 20.088C52.8201 20.952 53.3481 21.648 54.0441 22.176C54.7641 22.68 55.6521 22.932 56.7081 22.932C57.8361 22.932 58.7841 22.656 59.5521 22.104C60.3441 21.552 60.8241 20.856 60.9921 20.016H66.6081C66.3681 22.296 65.3601 24.108 63.5841 25.452C61.8321 26.772 59.5401 27.432 56.7081 27.432Z" fill="white"/>
<path d="M85.0542 27V12.888C85.0542 12.336 84.9822 11.904 84.8382 11.592C84.6942 11.256 84.4182 11.088 84.0102 11.088C83.4822 11.088 83.0022 11.484 82.5702 12.276C82.1622 13.044 81.8262 14.4 81.5622 16.344L81.2022 13.644C81.0582 11.46 81.4182 9.73201 82.2822 8.46C83.1462 7.18801 84.3102 6.55201 85.7742 6.55201C87.0222 6.55201 88.0542 7.04401 88.8702 8.02801C89.6862 8.98801 90.0942 10.404 90.0942 12.276V27H85.0542ZM69.7902 27V6.98401H74.6862L74.7942 10.692V27H69.7902ZM77.4222 27V12.888C77.4222 12.264 77.3262 11.808 77.1342 11.52C76.9662 11.232 76.7022 11.088 76.3422 11.088C75.7182 11.088 75.2262 11.52 74.8662 12.384C74.5062 13.248 74.1942 14.568 73.9302 16.344L73.9662 13.428C73.8702 12.036 74.0262 10.824 74.4342 9.79201C74.8422 8.76001 75.3822 7.96801 76.0542 7.41601C76.7502 6.84001 77.4942 6.55201 78.2862 6.55201C79.5582 6.55201 80.5662 7.08001 81.3102 8.136C82.0542 9.16801 82.4262 10.524 82.4262 12.204V27H77.4222Z" fill="white"/>
<path d="M103.536 27.432C101.376 27.432 99.5162 27.012 97.9562 26.172C96.4202 25.332 95.2322 24.132 94.3922 22.572C93.5522 21.012 93.1322 19.152 93.1322 16.992C93.1322 14.808 93.5522 12.936 94.3922 11.376C95.2322 9.81601 96.4442 8.62801 98.0282 7.81201C99.6362 6.97201 101.568 6.55201 103.824 6.55201C107.352 6.55201 109.908 7.56001 111.492 9.57601C113.1 11.568 113.772 14.316 113.508 17.82H97.5962L97.6322 13.968H107.784C107.712 13.056 107.304 12.324 106.56 11.772C105.816 11.196 104.892 10.908 103.788 10.908C102.06 10.908 100.788 11.448 99.9722 12.528C99.1562 13.608 98.7482 15.18 98.7482 17.244C98.7482 18.276 98.9282 19.224 99.2882 20.088C99.6482 20.952 100.176 21.648 100.872 22.176C101.592 22.68 102.48 22.932 103.536 22.932C104.664 22.932 105.612 22.656 106.38 22.104C107.172 21.552 107.652 20.856 107.82 20.016H113.436C113.196 22.296 112.188 24.108 110.412 25.452C108.66 26.772 106.368 27.432 103.536 27.432Z" fill="white"/>
<path d="M124.934 13.932L126.734 19.08L128.57 13.932L131.486 6.98401H137.21L128.354 27.972C127.754 29.412 127.058 30.552 126.266 31.392C125.498 32.256 124.622 32.88 123.638 33.264C122.654 33.648 121.526 33.84 120.254 33.84H116.546V29.304H119.642C120.314 29.304 120.878 29.148 121.334 28.836C121.814 28.524 122.222 28.104 122.558 27.576C122.918 27.072 123.242 26.496 123.53 25.848L123.89 25.02L116.33 6.98401H122.09L124.934 13.932Z" fill="white"/>
<path d="M170.61 27V1.87201H176.55V27H170.61ZM164.85 1.87201H182.31V6.73201H164.85V1.87201ZM164.85 22.14H182.31V27H164.85V22.14Z" fill="white"/>
<path d="M186.86 27V0.360007H192.476V8.92801L192.116 14.94L195.932 10.296L199.1 6.98401H206.228L192.476 20.664V27H186.86ZM200.036 27L193.664 15.48L198.812 13.464L206.552 27H200.036Z" fill="white"/>
<path d="M224.315 27L224.135 23.4V13.536C224.135 12.6 223.787 11.868 223.091 11.34C222.395 10.788 221.435 10.512 220.211 10.512C219.035 10.512 218.075 10.764 217.331 11.268C216.611 11.748 216.191 12.432 216.071 13.32H210.635C210.755 11.904 211.235 10.692 212.075 9.68401C212.915 8.67601 214.043 7.90801 215.459 7.38001C216.899 6.82801 218.567 6.55201 220.463 6.55201C222.335 6.55201 223.967 6.84001 225.359 7.41601C226.751 7.96801 227.819 8.79601 228.563 9.90001C229.331 10.98 229.715 12.312 229.715 13.896V27H224.315ZM217.907 27.432C216.587 27.432 215.423 27.18 214.415 26.676C213.407 26.148 212.627 25.428 212.075 24.516C211.523 23.604 211.247 22.572 211.247 21.42C211.247 19.356 212.039 17.76 213.623 16.632C215.231 15.48 217.439 14.904 220.247 14.904H224.675V18.792L220.103 18.828C219.071 18.828 218.243 19.02 217.619 19.404C217.019 19.764 216.719 20.316 216.719 21.06C216.719 21.588 216.935 22.044 217.367 22.428C217.823 22.812 218.459 23.004 219.275 23.004C220.403 23.004 221.399 22.728 222.263 22.176C223.151 21.6 223.883 20.82 224.459 19.836L225.071 23.616C224.471 24.936 223.547 25.908 222.299 26.532C221.075 27.132 219.611 27.432 217.907 27.432Z" fill="white"/>
<path d="M244.345 27.432C242.473 27.432 240.829 27.132 239.413 26.532C237.997 25.908 236.893 25.032 236.101 23.904C235.333 22.752 234.937 21.396 234.913 19.836H240.133C240.085 20.94 240.433 21.804 241.177 22.428C241.945 23.052 242.989 23.364 244.309 23.364C245.269 23.364 246.037 23.208 246.613 22.896C247.213 22.56 247.513 22.104 247.513 21.528C247.513 21.024 247.285 20.628 246.829 20.34C246.397 20.028 245.821 19.788 245.101 19.62C244.381 19.428 243.589 19.248 242.725 19.08C241.861 18.888 240.985 18.66 240.097 18.396C239.233 18.132 238.441 17.784 237.721 17.352C237.001 16.896 236.413 16.308 235.957 15.588C235.525 14.844 235.309 13.92 235.309 12.816C235.309 11.544 235.669 10.44 236.389 9.50401C237.109 8.56801 238.105 7.84801 239.377 7.34401C240.673 6.81601 242.161 6.55201 243.841 6.55201C246.409 6.55201 248.485 7.15201 250.069 8.35201C251.677 9.52801 252.565 11.184 252.733 13.32H247.549C247.501 12.432 247.141 11.76 246.469 11.304C245.797 10.848 244.933 10.62 243.877 10.62C242.989 10.62 242.281 10.776 241.753 11.088C241.225 11.4 240.961 11.868 240.961 12.492C240.961 12.996 241.177 13.392 241.609 13.68C242.065 13.944 242.653 14.16 243.373 14.328C244.093 14.496 244.885 14.652 245.749 14.796C246.637 14.94 247.513 15.144 248.377 15.408C249.241 15.648 250.033 15.984 250.753 16.416C251.473 16.848 252.049 17.424 252.481 18.144C252.937 18.864 253.165 19.788 253.165 20.916C253.165 22.956 252.361 24.552 250.753 25.704C249.169 26.856 247.033 27.432 244.345 27.432Z" fill="white"/>
<path d="M271.179 27V14.688C271.179 13.632 270.915 12.792 270.387 12.168C269.859 11.544 269.163 11.232 268.299 11.232C267.315 11.232 266.403 11.568 265.563 12.24C264.747 12.888 263.883 14.016 262.971 15.624L262.179 10.908C263.091 9.32401 264.195 8.20801 265.491 7.56001C266.787 6.88801 268.107 6.55201 269.451 6.55201C270.987 6.55201 272.295 6.87601 273.375 7.52401C274.479 8.17201 275.319 9.08401 275.895 10.26C276.495 11.412 276.795 12.768 276.795 14.328V27H271.179ZM257.823 27V0.324005H263.439V27H257.823Z" fill="white"/>
<path d="M290.849 27.432C288.689 27.432 286.829 27.012 285.269 26.172C283.733 25.332 282.545 24.132 281.705 22.572C280.865 21.012 280.445 19.152 280.445 16.992C280.445 14.808 280.865 12.936 281.705 11.376C282.545 9.81601 283.757 8.62801 285.341 7.81201C286.949 6.97201 288.881 6.55201 291.137 6.55201C294.665 6.55201 297.221 7.56001 298.805 9.57601C300.413 11.568 301.085 14.316 300.821 17.82H284.909L284.945 13.968H295.097C295.025 13.056 294.617 12.324 293.873 11.772C293.129 11.196 292.205 10.908 291.101 10.908C289.373 10.908 288.101 11.448 287.285 12.528C286.469 13.608 286.061 15.18 286.061 17.244C286.061 18.276 286.241 19.224 286.601 20.088C286.961 20.952 287.489 21.648 288.185 22.176C288.905 22.68 289.793 22.932 290.849 22.932C291.977 22.932 292.925 22.656 293.693 22.104C294.485 21.552 294.965 20.856 295.133 20.016H300.749C300.509 22.296 299.501 24.108 297.725 25.452C295.973 26.772 293.681 27.432 290.849 27.432Z" fill="white"/>
<path d="M310.843 27L303.715 6.98401H309.583L312.931 17.136L314.155 22.104L315.451 17.136L318.727 6.98401H324.415L317.323 27H310.843Z" fill="white"/>
</svg>
